<?xml version="1.0" encoding="UTF-8" standalone="no"?>
<svg
   xmlns:dc="http://purl.org/dc/elements/1.1/"
   xmlns:cc="http://creativecommons.org/ns#"
   xmlns:rdf="http://www.w3.org/1999/02/22-rdf-syntax-ns#"
   xmlns:svg="http://www.w3.org/2000/svg"
   xmlns="http://www.w3.org/2000/svg"
   id="svg34257"
   version="1.1"
   viewBox="0 0 66.145832 8.4666669"
   height="32"
   width="250">
  <defs
     id="defs34251" />
  <metadata
     id="metadata34254">
    <rdf:RDF>
      <cc:Work
         rdf:about="">
        <dc:format>image/svg+xml</dc:format>
        <dc:type
           rdf:resource="http://purl.org/dc/dcmitype/StillImage" />
        <dc:title></dc:title>
      </cc:Work>
    </rdf:RDF>
  </metadata>
  <g
     transform="translate(0,-288.53333)"
     id="layer1">
    <g
       id="text16099"
       style="font-style:normal;font-weight:normal;font-size:11.00225925px;line-height:1.25;font-family:sans-serif;letter-spacing:0px;word-spacing:0px;fill:#ffffff;fill-opacity:1;stroke:none;stroke-width:0.27505648"
       aria-label="webian">
      <path
         id="path38551"
         style="font-style:normal;font-variant:normal;font-weight:normal;font-stretch:normal;font-family:'Arial Rounded MT Bold';-inkscape-font-specification:'Arial Rounded MT Bold, ';fill:#ffffff;stroke-width:0.27505648"
         d="m 1.4182601,291.95013 0.956251,3.27704 0.8702959,-3.04603 q 0.1396772,-0.47813 0.2041435,-0.65004 0.069839,-0.17728 0.2524933,-0.33308 0.1880269,-0.16116 0.5103587,-0.16116 0.327704,0 0.5103587,0.16116 0.1880269,0.1558 0.2632376,0.34383 0.075211,0.18265 0.2095157,0.63929 l 0.8702959,3.04603 0.9669955,-3.27704 q 0.096699,-0.35456 0.1557937,-0.51036 0.059094,-0.16116 0.1987713,-0.27935 0.1396771,-0.12356 0.4029147,-0.12356 0.2632377,0 0.4566368,0.18265 0.193399,0.18266 0.193399,0.42978 0,0.22563 -0.1665381,0.68227 l -1.1979999,3.51341 q -0.1557937,0.4459 -0.2417488,0.64467 -0.085955,0.19877 -0.2739821,0.35456 Q 6.3767978,297 6.054466,297 q -0.3330762,0 -0.5264753,-0.16654 -0.1880269,-0.16654 -0.2793542,-0.40829 -0.091327,-0.24175 -0.1987713,-0.62855 l -0.8380627,-2.858 -0.8112018,2.858 Q 3.2394348,296.39294 3.051408,296.69915 2.8633811,297 2.3906277,297 2.1488789,297 1.9769686,296.9033 1.8104305,296.81197 1.6976143,296.64006 1.5847982,296.46278 1.498843,296.2264 1.4128879,295.98465 1.3645381,295.84497 L 0.17728261,292.33156 Q 1.1129305e-7,291.83732 1.1129305e-7,291.64929 q 0,-0.23638 0.18802688870695,-0.4244 0.18802689,-0.18803 0.46200894,-0.18803 0.36530936,0 0.49424216,0.20951 0.1289327,0.20415 0.273982,0.70376 z" />
      <path
         id="path38553"
         style="font-style:normal;font-variant:normal;font-weight:normal;font-stretch:normal;font-family:'Arial Rounded MT Bold';-inkscape-font-specification:'Arial Rounded MT Bold, ';fill:#ffffff;stroke-width:0.27505648"
         d="m 13.398259,294.37836 h -2.868753 q 0.0054,0.49962 0.198772,0.88105 0.198771,0.38142 0.521103,0.57482 0.327704,0.1934 0.719874,0.1934 0.263238,0 0.478126,-0.0591 0.22026,-0.0645 0.424403,-0.1934 0.204144,-0.13431 0.376054,-0.28473 0.17191,-0.15042 0.445892,-0.40829 0.112816,-0.0967 0.322332,-0.0967 0.225632,0 0.365309,0.12356 0.139678,0.12356 0.139678,0.3492 0,0.19877 -0.155794,0.46738 -0.155794,0.26324 -0.472753,0.51036 -0.311588,0.24175 -0.789713,0.40291 Q 12.630035,297 12.012233,297 q -1.412888,0 -2.1972289,-0.80583 -0.7843407,-0.80583 -0.7843407,-2.18649 0,-0.65003 0.193399,-1.20337 0.1933991,-0.55871 0.5640807,-0.95625 0.3706819,-0.39754 0.9132739,-0.60706 0.542591,-0.21489 1.203372,-0.21489 0.859551,0 1.471982,0.36531 0.617802,0.35994 0.924018,0.93477 0.306215,0.57482 0.306215,1.17113 0,0.55334 -0.31696,0.71988 -0.316959,0.16116 -0.891785,0.16116 z m -2.868753,-0.83269 h 2.659238 q -0.05372,-0.7521 -0.408287,-1.12278 -0.349193,-0.37606 -0.924018,-0.37606 -0.547964,0 -0.902529,0.38143 -0.349193,0.37605 -0.424404,1.11741 z" />
      <path
         id="path38555"
         style="font-style:normal;font-variant:normal;font-weight:normal;font-stretch:normal;font-family:'Arial Rounded MT Bold';-inkscape-font-specification:'Arial Rounded MT Bold, ';fill:#ffffff;stroke-width:0.27505648"
         d="m 17.040609,289.69381 v 2.24021 q 0.413659,-0.42978 0.843435,-0.65541 0.429775,-0.23101 1.063695,-0.23101 0.730618,0 1.278583,0.3492 0.553336,0.34382 0.854179,1.0046 0.306215,0.6554 0.306215,1.55793 0,0.66616 -0.17191,1.22486 -0.166538,0.55334 -0.48887,0.96163 -0.322332,0.40828 -0.784341,0.63392 Q 19.484958,297 18.931622,297 q -0.338448,0 -0.639291,-0.0806 -0.295471,-0.0806 -0.504987,-0.20951 -0.209516,-0.13431 -0.359937,-0.27398 -0.145049,-0.13968 -0.386798,-0.41903 v 0.14504 q 0,0.41366 -0.198772,0.62855 Q 16.643066,297 16.336851,297 q -0.311587,0 -0.499614,-0.20952 -0.182655,-0.21489 -0.182655,-0.62855 v -6.40365 q 0,-0.4459 0.177282,-0.67153 0.182655,-0.231 0.504987,-0.231 0.338448,0 0.521103,0.22026 0.182655,0.21488 0.182655,0.6178 z m 0.06984,4.35685 q 0,0.87567 0.397543,1.34842 0.402915,0.46738 1.05295,0.46738 0.553337,0 0.950879,-0.47812 0.402915,-0.4835 0.402915,-1.38066 0,-0.58019 -0.166538,-0.99923 -0.166538,-0.41903 -0.472753,-0.64466 -0.306216,-0.231 -0.714503,-0.231 -0.419031,0 -0.746735,0.231 -0.327704,0.22563 -0.515731,0.66078 -0.188027,0.42978 -0.188027,1.02609 z" />
      <path
         id="path38557"
         style="font-style:normal;font-variant:normal;font-weight:normal;font-stretch:normal;font-family:'Arial Rounded MT Bold';-inkscape-font-specification:'Arial Rounded MT Bold, ';fill:#ffffff;stroke-width:0.27505648"
         d="m 24.040581,291.86955 v 4.23866 q 0,0.44052 -0.209515,0.66615 Q 23.62155,297 23.299218,297 q -0.322332,0 -0.526475,-0.23101 -0.198771,-0.231 -0.198771,-0.66078 v -4.19568 q 0,-0.43515 0.198771,-0.65541 0.204143,-0.22026 0.526475,-0.22026 0.322332,0 0.531848,0.22026 0.209515,0.22026 0.209515,0.61243 z m -0.725246,-1.51496 q -0.306215,0 -0.526476,-0.18803 -0.214887,-0.18802 -0.214887,-0.53184 0,-0.31159 0.22026,-0.51036 0.225632,-0.20415 0.521103,-0.20415 0.284726,0 0.504986,0.18266 0.22026,0.18265 0.22026,0.53185 0,0.33844 -0.214888,0.53184 -0.214887,0.18803 -0.510358,0.18803 z" />
      <path
         id="path38559"
         style="font-style:normal;font-variant:normal;font-weight:normal;font-stretch:normal;font-family:'Arial Rounded MT Bold';-inkscape-font-specification:'Arial Rounded MT Bold, ';fill:#ffffff;stroke-width:0.27505648"
         d="m 29.267728,296.17268 q -0.531848,0.41366 -1.031462,0.62317 Q 27.742024,297 27.124221,297 q -0.56408,0 -0.993856,-0.22026 -0.424404,-0.22564 -0.655408,-0.60706 -0.231005,-0.38143 -0.231005,-0.82732 0,-0.60169 0.381426,-1.02609 0.381426,-0.4244 1.047579,-0.56945 0.139677,-0.0322 0.693013,-0.14505 0.553336,-0.11282 0.945507,-0.20414 0.397542,-0.0967 0.859551,-0.23101 -0.02686,-0.5802 -0.236376,-0.84881 -0.204144,-0.27398 -0.85418,-0.27398 -0.558708,0 -0.843435,0.1558 -0.279354,0.15579 -0.483497,0.46738 -0.198772,0.31158 -0.284727,0.41366 -0.08058,0.0967 -0.354565,0.0967 -0.247121,0 -0.429775,-0.1558 -0.177283,-0.16116 -0.177283,-0.40829 0,-0.38679 0.273982,-0.7521 0.273982,-0.36531 0.854179,-0.60169 0.580198,-0.23638 1.445121,-0.23638 0.966996,0 1.520332,0.23101 0.553336,0.22563 0.778969,0.71987 0.231004,0.49425 0.231004,1.31082 0,0.51573 -0.0054,0.87567 0,0.35993 -0.0054,0.80045 0,0.41366 0.134305,0.86493 0.139677,0.44589 0.139677,0.57482 0,0.22564 -0.214888,0.41366 Q 30.449611,297 30.181001,297 q -0.225632,0 -0.445892,-0.20952 -0.22026,-0.21489 -0.467381,-0.6178 z m -0.0967,-2.12202 q -0.322332,0.11819 -0.940134,0.25249 -0.612431,0.12894 -0.848807,0.1934 -0.236377,0.0591 -0.451265,0.24175 -0.214888,0.17728 -0.214888,0.49962 0,0.33307 0.252494,0.56945 0.252493,0.231 0.66078,0.231 0.435148,0 0.800457,-0.18802 0.370682,-0.1934 0.542592,-0.49425 0.198771,-0.33307 0.198771,-1.09592 z" />
      <path
         id="path38561"
         style="font-style:normal;font-variant:normal;font-weight:normal;font-stretch:normal;font-family:'Arial Rounded MT Bold';-inkscape-font-specification:'Arial Rounded MT Bold, ';fill:#ffffff;stroke-width:0.27505648"
         d="m 33.42581,291.84806 v 0.17728 q 0.386798,-0.51036 0.843435,-0.74673 0.462008,-0.24175 1.058322,-0.24175 0.580198,0 1.036834,0.25249 0.456637,0.2525 0.682269,0.7145 0.14505,0.26861 0.188027,0.5802 0.04298,0.31159 0.04298,0.79509 v 2.72907 q 0,0.44052 -0.204144,0.66615 Q 36.87476,297 36.552428,297 q -0.327704,0 -0.531847,-0.23101 -0.204144,-0.231 -0.204144,-0.66078 v -2.44435 q 0,-0.72524 -0.204143,-1.10667 -0.198772,-0.3868 -0.800458,-0.3868 -0.39217,0 -0.714502,0.23638 -0.322332,0.231 -0.472753,0.63929 -0.107444,0.3277 -0.107444,1.22486 v 1.83729 q 0,0.44589 -0.209516,0.67153 Q 33.103478,297 32.775774,297 q -0.31696,0 -0.521103,-0.23101 -0.204144,-0.231 -0.204144,-0.66078 v -4.23866 q 0,-0.41903 0.182655,-0.62318 0.182655,-0.20951 0.499614,-0.20951 0.193399,0 0.349193,0.0913 0.155794,0.0913 0.247121,0.27398 0.0967,0.18265 0.0967,0.44589 z" />
    </g>
    <g
       id="text16103"
       style="font-style:normal;font-weight:normal;font-size:11.00225925px;line-height:1.25;font-family:sans-serif;letter-spacing:0px;word-spacing:0px;fill:#000000;fill-opacity:1;stroke:none;stroke-width:0.27505648"
       aria-label="Kiosk">
      <path
         id="path38540"
         style="font-style:normal;font-variant:normal;font-weight:normal;font-stretch:normal;font-family:'Open Sans';-inkscape-font-specification:'Open Sans';fill:#ffffff;stroke-width:0.27505648"
         d="m 45.558413,296.89246 h -1.07444 l -2.863381,-3.80889 -0.821946,0.73062 v 3.07827 h -0.913273 v -7.85416 h 0.913273 v 3.89485 l 3.561767,-3.89485 h 1.079811 l -3.158852,3.41135 z" />
      <path
         id="path38542"
         style="font-style:normal;font-variant:normal;font-weight:normal;font-stretch:normal;font-family:'Open Sans';-inkscape-font-specification:'Open Sans';fill:#ffffff;stroke-width:0.27505648"
         d="m 47.390332,296.89246 h -0.891785 v -5.88793 h 0.891785 z m -0.966996,-7.48347 q 0,-0.30622 0.150422,-0.4459 0.150421,-0.14505 0.376054,-0.14505 0.214888,0 0.370681,0.14505 0.155794,0.14505 0.155794,0.4459 0,0.30084 -0.155794,0.45126 -0.155793,0.14505 -0.370681,0.14505 -0.225633,0 -0.376054,-0.14505 -0.150422,-0.15042 -0.150422,-0.45126 z" />
      <path
         id="path38544"
         style="font-style:normal;font-variant:normal;font-weight:normal;font-stretch:normal;font-family:'Open Sans';-inkscape-font-specification:'Open Sans';fill:#ffffff;stroke-width:0.27505648"
         d="m 54.374187,293.94312 q 0,1.43975 -0.725246,2.25095 -0.725247,0.80583 -2.00383,0.80583 -0.789713,0 -1.402143,-0.37068 -0.612431,-0.37068 -0.945507,-1.0637 -0.333076,-0.69301 -0.333076,-1.6224 0,-1.43975 0.719874,-2.24021 0.719875,-0.80583 1.998458,-0.80583 1.235605,0 1.960852,0.82195 0.730618,0.82195 0.730618,2.22409 z m -4.485784,0 q 0,1.12816 0.451264,1.7191 0.451265,0.59094 1.326933,0.59094 0.875668,0 1.326933,-0.58556 0.456636,-0.59095 0.456636,-1.72448 0,-1.12279 -0.456636,-1.70299 -0.451265,-0.58557 -1.337677,-0.58557 -0.875668,0 -1.321561,0.57483 -0.445892,0.57482 -0.445892,1.71373 z" />
      <path
         id="path38546"
         style="font-style:normal;font-variant:normal;font-weight:normal;font-stretch:normal;font-family:'Open Sans';-inkscape-font-specification:'Open Sans';fill:#ffffff;stroke-width:0.27505648"
         d="m 59.730268,295.28617 q 0,0.82195 -0.612431,1.26784 -0.61243,0.44589 -1.719103,0.44589 -1.171138,0 -1.826546,-0.37068 v -0.82732 q 0.424403,0.21489 0.907901,0.33845 0.48887,0.12356 0.940134,0.12356 0.698386,0 1.07444,-0.22026 0.376053,-0.22563 0.376053,-0.68227 0,-0.34382 -0.300843,-0.58557 -0.29547,-0.24712 -1.160394,-0.5802 -0.821946,-0.30621 -1.171139,-0.53184 -0.343821,-0.23101 -0.515731,-0.52111 -0.166538,-0.2901 -0.166538,-0.69301 0,-0.71988 0.585569,-1.13353 0.58557,-0.41904 1.606287,-0.41904 0.950879,0 1.85878,0.3868 l -0.316959,0.72525 q -0.886413,-0.36531 -1.606287,-0.36531 -0.633919,0 -0.956251,0.19877 -0.322332,0.19877 -0.322332,0.54797 0,0.23637 0.118188,0.40291 0.123561,0.16654 0.392171,0.31696 0.26861,0.15042 1.031462,0.43515 1.047578,0.38142 1.412887,0.76822 0.370682,0.3868 0.370682,0.97237 z" />
      <path
         id="path38548"
         style="font-style:normal;font-variant:normal;font-weight:normal;font-stretch:normal;font-family:'Open Sans';-inkscape-font-specification:'Open Sans';fill:#ffffff;stroke-width:0.27505648"
         d="m 62.056428,293.87865 q 0.231005,-0.3277 0.703758,-0.85955 l 1.901758,-2.01457 h 1.058323 l -2.385256,2.50881 2.551794,3.37912 h -1.079812 l -2.07904,-2.7828 -0.671525,0.5802 v 2.2026 h -0.88104 v -8.35914 h 0.88104 v 4.43206 q 0,0.29547 -0.04298,0.91327 z" />
    </g>
  </g>
</svg>
